<?xml version="1.0" encoding="UTF-8" standalone="no"?>
<svg width="800" height="1000" viewBox="0 0 800 1000" xmlns="http://www.w3.org/2000/svg">
  <defs>
    <linearGradient id="goldGrad" x1="0" y1="0" x2="0" y2="1">
      <stop offset="0%" stop-color="#d4af37"/>
      <stop offset="100%" stop-color="#8c6b1f"/>
    </linearGradient>
  </defs>

  <!-- Clean professional vector logo -->
  <g transform="translate(400,260)" fill="url(#goldGrad)" stroke="#6f5316" stroke-width="4">
    <rect x="-18" y="-140" width="36" height="280" rx="10"/>
    <circle cx="0" cy="-140" r="18"/>
    <polygon points="0,-210 -16,-170 16,-170"/>
    <rect x="-200" y="-110" width="400" height="20" rx="10"/>

    <line x1="-160" y1="-90" x2="-120" y2="-10"/>
    <line x1="-120" y1="-10" x2="-80" y2="-90"/>
    <line x1="160" y1="-90" x2="120" y2="-10"/>
    <line x1="120" y1="-10" x2="80" y2="-90"/>

    <ellipse cx="-120" cy="0" rx="70" ry="18"/>
    <path d="M -190 0 Q -120 50 -50 0 Z"/>
    <ellipse cx="120" cy="0" rx="70" ry="18"/>
    <path d="M 50 0 Q 120 50 190 0 Z"/>

    <ellipse cx="0" cy="160" rx="120" ry="22"/>
    <rect x="-90" y="160" width="180" height="40" rx="18"/>
  </g>

  <text x="400" y="700" text-anchor="middle" font-size="64" font-weight="700"
        font-family="Georgia, 'Times New Roman', serif" fill="#2b2b2b">
    Yash Palan
  </text>
  <text x="400" y="760" text-anchor="middle" font-size="28"
        font-family="Georgia, 'Times New Roman', serif" fill="#444">
    Advocate High Court
  </text>
  <text x="400" y="810" text-anchor="middle" font-size="22"
        font-family="Georgia, 'Times New Roman', serif" fill="#555">
    BLS LLM, PGDIM ADR
  </text>
</svg>
